<?xml version="1.0" encoding="utf-8"?>
<!-- Generator: Adobe Illustrator 16.0.0, SVG Export Plug-In . SVG Version: 6.00 Build 0)  -->
<!DOCTYPE svg PUBLIC "-//W3C//DTD SVG 1.1//EN" "http://www.w3.org/Graphics/SVG/1.1/DTD/svg11.dtd">
<svg version="1.1" id="Layer_1" xmlns="http://www.w3.org/2000/svg" xmlns:xlink="http://www.w3.org/1999/xlink" x="0px" y="0px"
	 width="438.449px" height="315px" viewBox="185.445 154.14 438.449 315" enable-background="new 185.445 154.14 438.449 315"
	 xml:space="preserve">
<g>
	<path fill="#989898" d="M567.491,300.882c0,0,2.232,6.535,17.851,23.139c0,0,2.067,2.565,4.958-0.078
		c2.894-2.648,13.881-15.122,17.687-23.388c0,0,1.981-2.479-1.075-4.213c-3.059-1.736-18.181-13.387-38.925,0.494
		C567.985,296.836,565.919,298.155,567.491,300.882z"/>
	<circle fill="#989898" cx="587.902" cy="275.282" r="11.818"/>
	<path fill="#989898" d="M508.182,302.033c0,0,2.937,8.602,23.506,30.472c0,0,2.721,3.377,6.53-0.104
		c3.81-3.483,18.281-19.914,23.288-30.798c0,0,2.61-3.266-1.414-5.551c-4.027-2.285-23.941-17.629-51.258,0.654
		C508.835,296.705,506.114,298.439,508.182,302.033z"/>
	<circle fill="#989898" cx="535.062" cy="268.316" r="15.562"/>
	
		<linearGradient id="SVGID_1_" gradientUnits="userSpaceOnUse" x1="531.6492" y1="295.6799" x2="531.6492" y2="351.1623" gradientTransform="matrix(1 0 0 -1 24.9448 586.6392)">
		<stop  offset="0" style="stop-color:#5CC6D0"/>
		<stop  offset="0.6817" style="stop-color:#41C7F3"/>
		<stop  offset="0.8409" style="stop-color:#5FCCF4"/>
		<stop  offset="1" style="stop-color:#71D0F5"/>
	</linearGradient>
	<path fill="url(#SVGID_1_)" d="M587.075,244.773c-7.231,0-12.758,2.118-16.971,5.203c-5.447-10.696-16.339-20.951-36.132-20.951
		c-32.103,0-38.849,31.561-38.849,37.544c0,5.986,0.433,13.929,6.964,25.25c0,0,1.933,3.68,5.767,1.089
		c4.029-2.722,13.061-6.639,13.061-6.639s2.067-1.306-0.216-3.482c-2.287-2.176-5.77-7.943-5.77-15.128
		c0-7.184,6.64-18.827,19.371-18.827s20.351,9.685,20.351,19.371c0,9.686-6.53,15.129-6.53,15.129s-2.285,1.851,0.87,3.263
		c3.157,1.415,9.577,3.918,12.734,5.987c0.787,0.516,1.491,0.816,2.122,0.949c0.73,0.501,1.857,0.792,3.395-0.247
		c3.056-2.068,9.916-5.042,9.916-5.042s1.57-0.993-0.166-2.645c-1.733-1.651-4.377-6.032-4.377-11.486s5.039-14.295,14.706-14.295
		c9.669,0,15.455,7.354,15.455,14.71c0,7.354-4.956,11.486-4.956,11.486s-1.737,1.405,0.66,2.479
		c2.396,1.073,7.271,2.975,9.667,4.544c2.397,1.57,3.8,0.495,4.461-0.662c0.663-1.157,5.455-8.759,5.455-17.933
		C618.064,265.268,611.455,244.773,587.075,244.773z"/>
	<g>
		<path fill="#41C7F3" d="M405.82,324.373c7.42-0.84,8.328-0.513,9.939-0.513c2.212,0,4.478,0.771,5.973,1.846
			c1.493,1.074,2.24,2.927,2.24,5.558c0,1.195-0.27,2.376-0.805,3.54c-0.539,1.167-1.287,2.331-2.242,3.497
			c-0.958,1.166-2.061,2.36-3.317,3.583c-1.256,1.228-2.599,2.528-4.034,3.902c-1.854,1.791-3.719,3.584-5.603,5.378
			c-1.883,1.793-3.572,3.721-5.065,5.782c-1.495,2.062-2.705,4.289-3.631,6.679c-0.928,2.39-1.39,5.019-1.39,7.89
			c0,0.416,0,1.136,0,2.149c0,1.018,0.059,1.854,0.179,2.512h41.417v-11.205h-26.714c0.18-0.598,0.64-1.36,1.391-2.285
			c0.745-0.927,1.598-1.93,2.554-3.002c0.956-1.078,1.955-2.136,3.004-3.187c1.044-1.045,2.016-1.986,2.912-2.822
			c1.731-1.614,3.496-3.316,5.29-5.108c1.792-1.794,3.407-3.662,4.84-5.605c1.436-1.94,2.601-3.958,3.497-6.048
			c0.897-2.095,1.342-4.276,1.342-6.545c0-2.747-0.4-5.215-1.209-7.396c-0.806-2.181-2.062-4.034-3.764-5.555
			c-1.703-1.525-3.871-2.706-6.5-3.542c-2.628-0.837-5.769-1.256-9.412-1.256c-4.005,0-5.292,0.368-8.84,1.674L405.82,324.373z"/>
		<path fill="#41C7F3" d="M516.619,340.768c-0.625-2.631-1.703-4.899-3.227-6.815c-1.521-1.911-3.556-3.389-6.096-4.438
			c-2.541-1.044-5.724-1.567-9.549-1.567c-1.313,0-2.673,0.134-4.077,0.402c-1.405,0.271-2.556,0.554-3.452,0.854v-15.278
			l-13.356,0.029v37.39h-5.288v-37.293h-12.641c-2.689,2.69-5.377,5.708-8.068,9.055c-2.688,3.347-5.243,6.768-7.664,10.266
			c-2.421,3.495-4.618,6.901-6.591,10.218c-1.971,3.316-3.616,6.292-4.93,8.921v9.769h26.803v13.896h13.088v-13.896h5.29v13.896
			h13.356v-35.858c0.837-0.24,1.778-0.464,2.823-0.674c1.046-0.207,2.166-0.312,3.362-0.312c2.989,0,5.035,0.896,6.143,2.688
			c1.103,1.794,1.659,4.842,1.659,9.145v25.012h13.355V349.55C517.562,346.326,517.248,343.397,516.619,340.768z M458.485,351.345
			h-14.074c1.794-3.765,4.005-7.439,6.634-11.026c2.63-3.586,5.108-6.901,7.44-9.95V351.345z"/>
	</g>
	<g>
		<path fill="none" d="M237.417,355.143c-1.222,0-2.371,0.073-3.447,0.219c-1.077,0.144-2.021,0.421-2.834,0.829
			c-0.816,0.408-1.453,0.958-1.919,1.656c-0.466,0.697-0.697,1.57-0.697,2.618c0,2.035,0.683,3.445,2.051,4.229
			c1.366,0.786,3.241,1.177,5.626,1.177c1.277,0,2.5-0.028,3.665-0.086c1.162-0.058,2.093-0.145,2.791-0.262v-9.857
			c-0.523-0.115-1.308-0.231-2.355-0.348C239.249,355.202,238.289,355.143,237.417,355.143z"/>
		<path fill="#676767" d="M206.047,327.601v-0.808c0-1.223,0.131-2.355,0.393-3.402s0.697-1.947,1.308-2.705
			c0.61-0.756,1.452-1.351,2.529-1.787c1.076-0.436,2.4-0.654,3.97-0.654c1.161,0,2.426,0.133,3.793,0.393
			c1.366,0.262,2.63,0.654,3.794,1.177l2.53-10.379c-1.105-0.467-2.675-0.945-4.71-1.44c-2.036-0.493-4.274-0.74-6.716-0.74
			c-6.572,0-11.529,1.746-14.873,5.232c-3.345,3.488-5.016,8.199-5.016,14.131v48.327h12.998v-35.066v-1.291l11.116,0.027
			l2.912-11.014H206.047L206.047,327.601z"/>
		<path fill="#676767" d="M250.893,332.899c-1.541-1.629-3.589-2.878-6.148-3.749c-2.56-0.872-5.641-1.549-9.478-1.549h-11.984
			l-2.833,11.021l13.22,0.033c3.314,0,5.639,0.671,6.977,2.006c1.337,1.34,2.006,3.112,2.006,5.322v1.222
			c-0.815-0.233-1.876-0.422-3.183-0.567c-1.308-0.146-2.808-0.219-4.493-0.219c-2.501,0-4.916,0.248-7.24,0.74
			c-2.325,0.497-4.392,1.293-6.192,2.399c-1.804,1.106-3.242,2.589-4.319,4.449s-1.613,4.13-1.613,6.805
			c0,2.79,0.464,5.146,1.394,7.063c0.93,1.92,2.267,3.477,4.012,4.669c1.744,1.191,3.823,2.05,6.237,2.573
			c2.413,0.521,5.105,0.784,8.07,0.784c4.711,0,8.723-0.277,12.039-0.827c3.312-0.553,5.901-1.031,7.763-1.439v-27.043
			c0-2.848-0.32-5.436-0.959-7.762C253.524,336.505,252.434,334.528,250.893,332.899z M242.651,365.523
			c-0.698,0.117-1.629,0.204-2.791,0.262c-1.166,0.058-2.386,0.086-3.665,0.086c-2.385,0-4.26-0.393-5.626-1.177
			c-1.368-0.784-2.051-2.194-2.051-4.229c0-1.048,0.232-1.921,0.698-2.618c0.466-0.697,1.104-1.248,1.919-1.656
			c0.813-0.408,1.757-0.686,2.834-0.829c1.076-0.146,2.225-0.219,3.446-0.219c0.872,0,1.833,0.06,2.88,0.174
			c1.046,0.117,1.831,0.234,2.354,0.35v9.857H242.651z"/>
		<path fill="#676767" d="M318.8,333.859c-1.395-1.859-3.272-3.301-5.627-4.318c-2.355-1.017-5.364-1.525-9.028-1.525
			c-2.036,0-4.259,0.379-6.672,1.135c-2.414,0.756-4.552,1.803-6.412,3.141c-1.338-1.163-3.039-2.165-5.103-3.01
			c-2.065-0.843-4.754-1.266-8.068-1.266c-1.688,0-3.401,0.073-5.146,0.218c-1.746,0.146-3.446,0.349-5.104,0.611
			c-1.658,0.261-3.229,0.553-4.71,0.872c-1.483,0.321-2.777,0.626-3.883,0.916v44.312h12.998v-35.416
			c0.814-0.116,1.657-0.219,2.529-0.304c0.872-0.089,1.715-0.134,2.529-0.134c2.616,0,4.463,0.873,5.54,2.616
			c1.074,1.747,1.614,4.712,1.614,8.898v24.338h12.998v-25.037c0-1.686-0.058-3.27-0.176-4.753
			c-0.117-1.483-0.378-2.894-0.785-4.231c0.814-0.523,1.846-0.959,3.098-1.309c1.249-0.349,2.222-0.523,2.921-0.523
			c2.617,0,4.462,0.873,5.539,2.616c1.075,1.746,1.614,4.712,1.614,8.897v24.337h12.997v-25.904c0-3.14-0.262-5.989-0.785-8.549
			C321.156,337.929,320.197,335.721,318.8,333.859z"/>
		<path fill="#676767" d="M338.296,310.176c-1.542-1.365-3.358-2.049-5.452-2.049c-2.093,0-3.913,0.684-5.453,2.049
			c-1.54,1.367-2.311,3.242-2.311,5.627s0.769,4.26,2.311,5.626c1.54,1.367,3.359,2.05,5.453,2.05c2.094,0,3.911-0.683,5.452-2.05
			c1.54-1.366,2.311-3.241,2.311-5.626S339.836,311.543,338.296,310.176z"/>
		<rect x="326.39" y="329.061" fill="#676767" width="12.997" height="45.884"/>
		<path fill="#676767" d="M363.897,365.086c-1.57-0.115-2.82-0.377-3.75-0.786c-0.931-0.406-1.644-0.929-2.137-1.568
			c-0.495-0.639-0.829-1.426-1.004-2.356c-0.175-0.93-0.26-1.977-0.26-3.141v-49.982l-12.998,2.095v50.504
			c0,2.443,0.247,4.641,0.741,6.588c0.492,1.948,1.424,3.606,2.791,4.971c1.366,1.366,3.227,2.43,5.582,3.185
			c2.355,0.756,5.421,1.163,9.202,1.223L363.897,365.086z"/>
		<path fill="#676767" d="M389.884,329.061c-0.583,2.269-1.24,4.725-1.97,7.37c-0.73,2.646-1.489,5.322-2.276,8.022
			c-0.789,2.706-1.591,5.339-2.409,7.897c-0.819,2.558-1.607,4.884-2.364,6.977c-0.817-2.094-1.679-4.419-2.587-6.977
			c-0.904-2.558-1.795-5.191-2.67-7.897c-0.876-2.701-1.711-5.377-2.498-8.022c-0.79-2.646-1.476-5.103-2.06-7.37h-13.783
			c2.617,9.014,5.41,17.14,8.375,24.38c2.968,7.239,5.936,13.769,8.904,19.582c-0.874,2.211-1.936,3.938-3.186,5.189
			c-1.252,1.251-3.041,1.878-5.366,1.878c-1.165,0-2.271-0.088-3.318-0.263c-1.047-0.176-2.239-0.495-3.578-0.959l-2.269,10.38
			c1.108,0.465,2.519,0.887,4.237,1.265c1.716,0.378,3.595,0.566,5.636,0.566c2.444,0,4.583-0.277,6.419-0.827
			c1.835-0.554,3.479-1.425,4.936-2.619c1.456-1.189,2.795-2.704,4.021-4.532c1.222-1.833,2.446-4.059,3.668-6.675
			c3.382-7.269,6.501-14.769,9.358-22.506c2.855-7.732,5.596-16.019,8.221-24.859H389.884z"/>
	</g>
</g>
</svg>
