<?xml version="1.0" encoding="utf-8"?>
<!-- Generator: Adobe Illustrator 16.0.0, SVG Export Plug-In . SVG Version: 6.00 Build 0)  -->
<!DOCTYPE svg PUBLIC "-//W3C//DTD SVG 1.1//EN" "http://www.w3.org/Graphics/SVG/1.1/DTD/svg11.dtd">
<svg version="1.1" id="Layer_1" xmlns="http://www.w3.org/2000/svg" xmlns:xlink="http://www.w3.org/1999/xlink" x="0px" y="0px"
	 width="438.449px" height="315px" viewBox="185.445 154.14 438.449 315" enable-background="new 185.445 154.14 438.449 315"
	 xml:space="preserve">
<g>
	<path fill="#FFFFFF" d="M569.94,298.891c0,0,2.251,6.593,18.017,23.354c0,0,2.086,2.588,5.004-0.082
		c2.919-2.67,14.012-15.261,17.85-23.603c0,0,2-2.503-1.086-4.254c-3.087-1.752-18.348-13.513-39.285,0.499
		C570.439,294.806,568.353,296.135,569.94,298.891z"/>
	<circle fill="#FFFFFF" cx="590.543" cy="273.051" r="11.928"/>
	<path fill="#FFFFFF" d="M510.08,300.051c0,0,2.967,8.684,23.727,30.755c0,0,2.745,3.409,6.589-0.105
		c3.846-3.516,18.453-20.099,23.507-31.084c0,0,2.636-3.296-1.429-5.603c-4.063-2.306-24.164-17.793-51.734,0.659
		C510.739,294.673,507.993,296.423,510.08,300.051z"/>
	<circle fill="#FFFFFF" cx="537.211" cy="266.022" r="15.707"/>
	<linearGradient id="SVGID_1_" gradientUnits="userSpaceOnUse" x1="558.9412" y1="288.8757" x2="558.9412" y2="232.8776">
		<stop  offset="0" style="stop-color:#5CC5CF"/>
		<stop  offset="0.6817" style="stop-color:#41C6F2"/>
		<stop  offset="0.6908" style="stop-color:#43C6F2"/>
		<stop  offset="0.891" style="stop-color:#64CDF3"/>
		<stop  offset="1" style="stop-color:#71CFF4"/>
	</linearGradient>
	<path fill="url(#SVGID_1_)" d="M589.707,242.26c-7.3,0-12.878,2.136-17.13,5.25c-5.498-10.794-16.491-21.145-36.465-21.145
		c-32.402,0-39.214,31.853-39.214,37.894c0,6.042,0.439,14.059,7.03,25.482c0,0,1.951,3.715,5.822,1.099
		c4.064-2.746,13.18-6.7,13.18-6.7s2.087-1.319-0.219-3.515s-5.821-8.018-5.821-15.268s6.699-19.002,19.551-19.002
		c12.851,0,20.54,9.774,20.54,19.551s-6.59,15.268-6.59,15.268s-2.306,1.867,0.877,3.295c3.187,1.428,9.668,3.954,12.852,6.042
		c0.796,0.521,1.508,0.823,2.146,0.958c0.736,0.506,1.875,0.798,3.426-0.25c3.084-2.086,10.006-5.088,10.006-5.088
		s1.587-1.001-0.165-2.669c-1.753-1.667-4.421-6.089-4.421-11.593c0-5.504,5.088-14.429,14.845-14.429
		c9.761,0,15.599,7.423,15.599,14.846c0,7.423-5.005,11.594-5.005,11.594s-1.752,1.417,0.667,2.503
		c2.42,1.084,7.341,3.001,9.759,4.586c2.419,1.584,3.836,0.5,4.504-0.667c0.667-1.168,5.505-8.841,5.505-18.1
		C620.984,262.945,614.312,242.26,589.707,242.26z"/>
	<g>
		<path fill="#41C6F2" d="M406.765,322.601c7.49-0.848,8.406-0.518,10.033-0.518c2.231,0,4.521,0.776,6.029,1.862
			c1.507,1.085,2.261,2.956,2.261,5.61c0,1.207-0.271,2.396-0.813,3.573c-0.543,1.176-1.298,2.353-2.264,3.529
			c-0.964,1.176-2.08,2.384-3.346,3.618c-1.267,1.238-2.625,2.55-4.073,3.936c-1.87,1.811-3.753,3.619-5.654,5.429
			c-1.9,1.811-3.604,3.756-5.112,5.837c-1.508,2.08-2.729,4.329-3.663,6.74c-0.936,2.413-1.403,5.067-1.403,7.963
			c0,0.422,0,1.146,0,2.171c0,1.026,0.061,1.87,0.181,2.533h41.801v-11.309H413.78c0.181-0.604,0.647-1.373,1.403-2.309
			c0.753-0.935,1.613-1.945,2.578-3.03c0.964-1.087,1.975-2.156,3.031-3.212c1.054-1.056,2.037-2.006,2.941-2.851
			c1.749-1.629,3.529-3.348,5.338-5.156c1.81-1.812,3.438-3.695,4.885-5.656c1.45-1.96,2.626-3.995,3.529-6.107
			c0.906-2.109,1.356-4.311,1.356-6.604c0-2.773-0.404-5.262-1.221-7.465c-0.813-2.201-2.082-4.07-3.799-5.609
			c-1.72-1.538-3.906-2.729-6.56-3.573c-2.655-0.844-5.822-1.268-9.501-1.268c-4.042,0-5.342,0.373-8.922,1.69L406.765,322.601z"/>
		<path fill="#41C6F2" d="M518.597,339.147c-0.634-2.654-1.72-4.946-3.258-6.877s-3.589-3.423-6.153-4.479
			c-2.563-1.054-5.775-1.582-9.636-1.582c-1.327,0-2.699,0.136-4.117,0.407c-1.417,0.271-2.577,0.559-3.481,0.858v-15.42
			l-13.481,0.033v37.735h-5.338v-37.64h-12.757c-2.716,2.716-5.429,5.762-8.145,9.139c-2.714,3.38-5.292,6.832-7.735,10.36
			s-4.66,6.967-6.65,10.313c-1.989,3.349-3.65,6.35-4.976,9.002v9.863h27.052v14.024h13.211v-14.024h5.338v14.024h13.481v-36.19
			c0.844-0.24,1.794-0.468,2.849-0.68c1.056-0.21,2.187-0.316,3.394-0.316c3.015,0,5.081,0.905,6.198,2.714
			c1.114,1.81,1.672,4.887,1.672,9.229v25.244h13.482v-26.872C519.547,344.756,519.229,341.801,518.597,339.147z M459.922,349.823
			h-14.204c1.809-3.8,4.04-7.511,6.695-11.128c2.653-3.62,5.157-6.968,7.509-10.044V349.823z"/>
	</g>
	<g>
		<path fill="#FFFFFF" d="M205.138,325.859v-0.816c0-1.233,0.133-2.377,0.396-3.434c0.264-1.058,0.705-1.966,1.321-2.729
			c0.616-0.762,1.466-1.365,2.553-1.807c1.085-0.438,2.421-0.658,4.006-0.658c1.173,0,2.45,0.132,3.83,0.396
			c1.378,0.263,2.655,0.66,3.83,1.189l2.553-10.477c-1.116-0.47-2.701-0.955-4.754-1.454c-2.055-0.496-4.314-0.748-6.779-0.748
			c-6.633,0-11.637,1.762-15.01,5.283c-3.376,3.521-5.063,8.275-5.063,14.262v48.774h13.118v-35.393v-1.303l11.22,0.028
			l2.939-11.114H205.138z"/>
		<path fill="#FFFFFF" d="M250.401,331.205c-1.555-1.644-3.624-2.906-6.207-3.787c-2.583-0.879-5.693-1.56-9.567-1.56h-12.096
			l-2.859,11.123l13.342,0.033c3.345,0,5.692,0.677,7.043,2.025c1.35,1.35,2.025,3.141,2.025,5.371v1.232
			c-0.823-0.234-1.893-0.426-3.213-0.573c-1.321-0.146-2.833-0.22-4.534-0.22c-2.524,0-4.961,0.25-7.308,0.749
			c-2.348,0.498-4.432,1.306-6.25,2.42c-1.82,1.115-3.272,2.613-4.357,4.491c-1.088,1.878-1.629,4.168-1.629,6.866
			c0,2.816,0.469,5.194,1.409,7.132c0.938,1.937,2.289,3.508,4.05,4.708c1.761,1.206,3.858,2.071,6.294,2.599
			c2.435,0.528,5.15,0.793,8.144,0.793c4.754,0,8.804-0.28,12.149-0.836c3.346-0.558,5.957-1.042,7.835-1.453v-27.293
			c0-2.874-0.323-5.487-0.968-7.835C253.056,334.844,251.955,332.848,250.401,331.205z M242.081,364.131
			c-0.704,0.119-1.644,0.206-2.817,0.264c-1.175,0.06-2.408,0.09-3.698,0.09c-2.407,0-4.3-0.397-5.679-1.19
			c-1.38-0.792-2.068-2.214-2.068-4.269c0-1.057,0.234-1.937,0.704-2.643c0.47-0.704,1.115-1.261,1.938-1.671
			c0.821-0.411,1.774-0.689,2.861-0.837c1.085-0.147,2.245-0.22,3.478-0.22c0.88,0,1.849,0.06,2.906,0.175
			c1.056,0.119,1.849,0.236,2.377,0.352V364.131z"/>
		<path fill="#FFFFFF" d="M318.939,332.173c-1.409-1.878-3.302-3.33-5.678-4.358c-2.377-1.025-5.415-1.541-9.113-1.541
			c-2.055,0-4.299,0.384-6.734,1.145c-2.437,0.764-4.593,1.821-6.471,3.17c-1.351-1.174-3.067-2.186-5.15-3.037
			c-2.083-0.851-4.798-1.277-8.143-1.277c-1.704,0-3.435,0.075-5.195,0.221c-1.761,0.148-3.478,0.352-5.15,0.616
			c-1.673,0.266-3.258,0.559-4.753,0.88c-1.497,0.323-2.804,0.631-3.919,0.925v44.725h13.118v-35.744
			c0.821-0.117,1.673-0.221,2.553-0.309c0.881-0.088,1.731-0.132,2.553-0.132c2.642,0,4.504,0.882,5.59,2.641
			c1.086,1.762,1.629,4.755,1.629,8.98v24.563h13.118v-25.267c0-1.703-0.059-3.303-0.176-4.799
			c-0.118-1.497-0.382-2.919-0.792-4.271c0.821-0.527,1.863-0.967,3.125-1.32c1.261-0.352,2.245-0.528,2.949-0.528
			c2.641,0,4.504,0.882,5.59,2.641c1.085,1.762,1.629,4.755,1.629,8.98v24.563h13.118v-26.147c0-3.17-0.264-6.044-0.792-8.628
			C321.316,336.281,320.348,334.052,318.939,332.173z"/>
		<path fill="#FFFFFF" d="M338.616,308.269c-1.556-1.377-3.39-2.067-5.502-2.067c-2.113,0-3.948,0.69-5.502,2.067
			c-1.556,1.381-2.333,3.274-2.333,5.681c0,2.407,0.777,4.3,2.333,5.679c1.555,1.379,3.389,2.067,5.502,2.067
			c2.113,0,3.947-0.688,5.502-2.067c1.555-1.379,2.333-3.271,2.333-5.679C340.949,311.543,340.171,309.65,338.616,308.269z"/>
		<rect x="326.598" y="327.33" fill="#FFFFFF" width="13.118" height="46.31"/>
		<path fill="#FFFFFF" d="M364.454,363.692c-1.585-0.117-2.848-0.382-3.786-0.793c-0.94-0.41-1.659-0.938-2.157-1.585
			c-0.499-0.646-0.836-1.438-1.013-2.376c-0.176-0.939-0.264-1.996-0.264-3.17v-50.447l-13.117,2.113v50.976
			c0,2.465,0.249,4.682,0.749,6.647c0.498,1.966,1.437,3.639,2.817,5.018c1.378,1.379,3.257,2.451,5.634,3.214
			c2.377,0.762,5.473,1.173,9.288,1.232L364.454,363.692z"/>
		<path fill="#FFFFFF" d="M390.684,327.33c-0.59,2.29-1.253,4.77-1.989,7.439c-0.737,2.672-1.503,5.371-2.299,8.1
			c-0.795,2.73-1.605,5.386-2.43,7.969c-0.826,2.583-1.622,4.93-2.388,7.041c-0.825-2.111-1.695-4.458-2.609-7.041
			c-0.914-2.583-1.813-5.238-2.696-7.969c-0.885-2.729-1.725-5.428-2.52-8.1c-0.797-2.67-1.49-5.149-2.079-7.439h-13.91
			c2.641,9.099,5.46,17.301,8.454,24.607c2.995,7.307,5.99,13.897,8.986,19.765c-0.882,2.229-1.954,3.977-3.216,5.239
			c-1.263,1.262-3.068,1.894-5.416,1.894c-1.174,0-2.291-0.089-3.348-0.266c-1.057-0.176-2.26-0.498-3.611-0.968l-2.29,10.476
			c1.117,0.47,2.542,0.896,4.275,1.277c1.733,0.381,3.63,0.571,5.688,0.571c2.468,0,4.628-0.279,6.48-0.835
			c1.851-0.56,3.512-1.439,4.981-2.642c1.468-1.204,2.821-2.729,4.056-4.577c1.234-1.851,2.468-4.096,3.703-6.736
			c3.414-7.335,6.562-14.907,9.446-22.714c2.883-7.805,5.649-16.169,8.297-25.092H390.684z"/>
	</g>
</g>
</svg>
