<svg xmlns="http://www.w3.org/2000/svg" width="438.449" height="315" viewBox="185.445 154.14 438.449 315"><path fill="#FFF" d="M569.94 298.89s2.25 6.594 18.017 23.355c0 0 2.086 2.588 5.004-.082 2.92-2.67 14.013-15.26 17.85-23.603 0 0 2-2.503-1.085-4.254-3.087-1.752-18.348-13.513-39.285.5 0 0-2.087 1.33-.5 4.085z"/><circle fill="#FFF" cx="590.543" cy="273.051" r="11.928"/><path fill="#FFF" d="M510.08 300.05s2.967 8.685 23.727 30.756c0 0 2.745 3.41 6.59-.105 3.845-3.515 18.452-20.098 23.506-31.083 0 0 2.636-3.296-1.43-5.603-4.062-2.306-24.163-17.793-51.733.66 0 0-2.747 1.75-.66 5.377z"/><circle fill="#FFF" cx="537.211" cy="266.022" r="15.707"/><linearGradient id="a" gradientUnits="userSpaceOnUse" x1="558.941" y1="288.876" x2="558.941" y2="232.878"><stop offset="0" stop-color="#5CC5CF"/><stop offset=".682" stop-color="#41C6F2"/><stop offset=".691" stop-color="#43C6F2"/><stop offset=".891" stop-color="#64CDF3"/><stop offset="1" stop-color="#71CFF4"/></linearGradient><path fill="url(#a)" d="M589.707 242.26c-7.3 0-12.878 2.136-17.13 5.25-5.498-10.794-16.49-21.145-36.465-21.145-32.402 0-39.214 31.853-39.214 37.894 0 6.04.44 14.058 7.03 25.48 0 0 1.95 3.716 5.822 1.1 4.064-2.746 13.18-6.7 13.18-6.7s2.087-1.32-.22-3.515-5.82-8.018-5.82-15.268 6.7-19.002 19.55-19.002c12.852 0 20.54 9.774 20.54 19.55s-6.59 15.27-6.59 15.27-2.305 1.866.878 3.294c3.187 1.427 9.668 3.953 12.852 6.04.796.522 1.508.824 2.146.96.736.505 1.875.797 3.426-.25 3.084-2.087 10.006-5.09 10.006-5.09s1.587-1-.165-2.668c-1.753-1.667-4.42-6.09-4.42-11.593 0-5.505 5.087-14.43 14.844-14.43 9.76 0 15.6 7.423 15.6 14.846s-5.006 11.594-5.006 11.594-1.75 1.417.668 2.503c2.42 1.084 7.34 3 9.76 4.586 2.418 1.583 3.835.5 4.503-.668.668-1.168 5.506-8.84 5.506-18.1-.002-9.257-6.674-29.942-31.28-29.942z"/><g fill="#41C6F2"><path d="M406.765 322.6c7.49-.847 8.406-.517 10.033-.517 2.23 0 4.52.776 6.03 1.862 1.506 1.085 2.26 2.956 2.26 5.61 0 1.207-.27 2.396-.813 3.573-.543 1.176-1.298 2.353-2.264 3.53-.963 1.175-2.08 2.383-3.345 3.617-1.267 1.238-2.625 2.55-4.073 3.936-1.87 1.812-3.753 3.62-5.654 5.43-1.9 1.81-3.604 3.756-5.112 5.837-1.508 2.08-2.73 4.33-3.663 6.74-.936 2.413-1.403 5.067-1.403 7.963v2.17c0 1.027.06 1.87.18 2.534h41.802v-11.31H413.78c.18-.603.647-1.372 1.403-2.308.753-.935 1.613-1.945 2.578-3.03.965-1.087 1.976-2.156 3.032-3.212 1.054-1.056 2.037-2.006 2.94-2.85 1.75-1.63 3.53-3.35 5.34-5.157 1.81-1.812 3.437-3.695 4.884-5.656 1.45-1.96 2.626-3.994 3.53-6.106.905-2.11 1.355-4.31 1.355-6.604 0-2.773-.403-5.262-1.22-7.465-.813-2.2-2.082-4.07-3.8-5.61-1.72-1.537-3.905-2.728-6.56-3.572-2.654-.844-5.82-1.268-9.5-1.268-4.042 0-5.342.373-8.922 1.69l-2.073 10.176z"/><path d="M518.597 339.147c-.634-2.654-1.72-4.946-3.258-6.877s-3.59-3.423-6.154-4.48c-2.563-1.053-5.775-1.58-9.636-1.58-1.327 0-2.7.135-4.117.406-1.417.27-2.577.56-3.48.858v-15.42l-13.482.033v37.735h-5.337v-37.64h-12.757c-2.716 2.716-5.43 5.762-8.145 9.14-2.713 3.38-5.29 6.83-7.734 10.36s-4.66 6.966-6.65 10.312c-1.99 3.35-3.65 6.35-4.976 9.002v9.863h27.052v14.023h13.21V360.86h5.34v14.023h13.48v-36.19c.844-.24 1.794-.468 2.85-.68 1.055-.21 2.186-.316 3.393-.316 3.015 0 5.08.905 6.198 2.714 1.114 1.81 1.672 4.888 1.672 9.23v25.244h13.482v-26.872c0-3.256-.318-6.21-.95-8.865zm-58.675 10.676h-14.204c1.81-3.8 4.04-7.51 6.695-11.128 2.653-3.62 5.157-6.968 7.51-10.044v21.173z"/></g><g fill="#FFF"><path d="M205.138 325.86v-.817c0-1.233.133-2.377.396-3.434.264-1.06.705-1.967 1.32-2.73.617-.762 1.467-1.365 2.554-1.807 1.085-.438 2.42-.658 4.006-.658 1.173 0 2.45.132 3.83.396 1.378.264 2.655.66 3.83 1.19l2.553-10.477c-1.116-.47-2.7-.955-4.754-1.454-2.055-.497-4.314-.75-6.78-.75-6.632 0-11.636 1.763-15.01 5.284-3.375 3.52-5.062 8.275-5.062 14.262v48.774h13.12v-36.696l11.22.028 2.938-11.114h-14.16zM250.4 331.205c-1.554-1.644-3.623-2.906-6.206-3.787-2.583-.88-5.693-1.56-9.567-1.56H222.53l-2.858 11.123 13.342.034c3.345 0 5.692.677 7.043 2.025 1.35 1.35 2.025 3.14 2.025 5.37v1.232c-.823-.234-1.893-.426-3.213-.573-1.322-.147-2.834-.22-4.535-.22-2.524 0-4.96.25-7.308.748s-4.432 1.306-6.25 2.42c-1.82 1.115-3.272 2.613-4.357 4.49-1.088 1.88-1.63 4.17-1.63 6.867 0 2.816.47 5.194 1.41 7.132.938 1.937 2.29 3.508 4.05 4.708 1.76 1.206 3.858 2.07 6.294 2.6 2.435.527 5.15.792 8.144.792 4.754 0 8.804-.28 12.15-.836 3.345-.557 5.956-1.04 7.834-1.452v-27.293c0-2.874-.323-5.487-.968-7.835-.648-2.346-1.75-4.342-3.303-5.985zm-8.32 32.926c-.703.12-1.643.207-2.816.265-1.175.06-2.408.09-3.698.09-2.407 0-4.3-.397-5.68-1.19-1.38-.792-2.067-2.214-2.067-4.27 0-1.056.233-1.936.703-2.642.47-.704 1.115-1.26 1.938-1.67.822-.412 1.775-.69 2.862-.838 1.085-.147 2.245-.22 3.478-.22.88 0 1.85.06 2.906.175 1.056.12 1.85.236 2.377.352v9.95zM318.94 332.173c-1.41-1.878-3.303-3.33-5.68-4.358-2.376-1.025-5.414-1.54-9.112-1.54-2.055 0-4.3.383-6.734 1.144-2.437.763-4.593 1.82-6.47 3.17-1.352-1.175-3.068-2.187-5.15-3.038-2.084-.85-4.8-1.277-8.144-1.277-1.704 0-3.435.075-5.195.22-1.76.15-3.478.353-5.15.617-1.673.266-3.258.56-4.753.88-1.497.323-2.804.63-3.92.925v44.725h13.12v-35.744c.82-.117 1.672-.22 2.552-.31.88-.087 1.73-.13 2.553-.13 2.642 0 4.504.88 5.59 2.64 1.086 1.762 1.63 4.755 1.63 8.98v24.563h13.117v-25.266c0-1.703-.06-3.303-.176-4.8-.118-1.496-.382-2.918-.792-4.27.82-.527 1.863-.967 3.125-1.32 1.262-.352 2.246-.528 2.95-.528 2.64 0 4.504.882 5.59 2.64 1.085 1.763 1.63 4.756 1.63 8.98v24.564h13.117v-26.147c0-3.17-.264-6.044-.792-8.628-.53-2.584-1.497-4.813-2.906-6.692zM338.616 308.27c-1.556-1.378-3.39-2.068-5.502-2.068-2.113 0-3.948.69-5.502 2.067-1.556 1.38-2.333 3.273-2.333 5.68 0 2.407.776 4.3 2.332 5.68 1.555 1.378 3.39 2.066 5.502 2.066 2.113 0 3.947-.688 5.502-2.067 1.555-1.38 2.333-3.272 2.333-5.68 0-2.407-.78-4.3-2.334-5.68zM326.598 327.33h13.118v46.31h-13.118zM364.454 363.692c-1.585-.117-2.848-.382-3.786-.793-.94-.41-1.66-.94-2.157-1.586-.498-.646-.835-1.438-1.012-2.376-.176-.94-.264-1.996-.264-3.17V305.32l-13.117 2.114v50.976c0 2.465.25 4.682.75 6.647.497 1.966 1.436 3.64 2.816 5.018 1.378 1.38 3.257 2.45 5.634 3.214 2.377.76 5.473 1.172 9.288 1.23l1.85-10.828z"/><path d="M390.684 327.33c-.59 2.29-1.253 4.77-1.99 7.44-.736 2.67-1.502 5.37-2.298 8.1-.795 2.73-1.605 5.385-2.43 7.968-.826 2.583-1.622 4.93-2.388 7.04-.825-2.11-1.695-4.457-2.61-7.04-.913-2.583-1.812-5.238-2.695-7.97-.885-2.728-1.725-5.427-2.52-8.1-.797-2.67-1.49-5.148-2.08-7.438h-13.91c2.642 9.1 5.46 17.3 8.455 24.607 2.995 7.307 5.99 13.897 8.986 19.765-.882 2.23-1.954 3.977-3.216 5.24-1.263 1.26-3.068 1.893-5.416 1.893-1.174 0-2.29-.09-3.348-.266-1.057-.177-2.26-.5-3.61-.97l-2.29 10.477c1.116.47 2.54.896 4.274 1.277 1.733.38 3.63.57 5.688.57 2.468 0 4.628-.278 6.48-.834 1.85-.56 3.512-1.44 4.98-2.642 1.47-1.204 2.822-2.73 4.057-4.577 1.234-1.85 2.468-4.095 3.703-6.735 3.414-7.335 6.562-14.907 9.446-22.714 2.883-7.804 5.65-16.168 8.297-25.09h-13.566z"/></g></svg>