<svg width="426" height="163" viewBox="0 0 426 163" xmlns="http://www.w3.org/2000/svg"><title>logo</title><defs><linearGradient x1="50.001%" y1="95.342%" x2="50.001%" y2="9.932%" id="a"><stop stop-color="#5CC6D0" offset="0%"/><stop stop-color="#41C7F3" offset="68.17%"/><stop stop-color="#5FCCF4" offset="84.09%"/><stop stop-color="#71D0F5" offset="100%"/></linearGradient></defs><g fill="none" fill-rule="evenodd"><g transform="translate(314 23)" fill="#989898"><path d="M60.49 48.882s2.233 6.535 17.852 23.14c0 0 2.067 2.564 4.958-.08 2.894-2.647 13.88-15.12 17.687-23.387 0 0 1.98-2.48-1.075-4.213-3.06-1.736-18.18-13.387-38.925.494-.002 0-2.068 1.32-.496 4.046z"/><circle cx="80.902" cy="23.282" r="11.818"/><path d="M1.182 50.033s2.937 8.602 23.506 30.472c0 0 2.72 3.377 6.53-.104 3.81-3.482 18.28-19.913 23.288-30.797 0 0 2.61-3.266-1.414-5.55-4.027-2.286-23.94-17.63-51.258.653 0 0-2.72 1.733-.652 5.327z"/><circle cx="28.062" cy="16.316" r="15.562"/></g><path d="M44.417 126.143c-1.222 0-2.37.073-3.447.22-1.077.143-2.02.42-2.834.828-.816.41-1.453.96-1.92 1.657-.465.697-.696 1.57-.696 2.618 0 2.035.683 3.445 2.05 4.23 1.367.785 3.242 1.176 5.627 1.176 1.277 0 2.5-.027 3.665-.085 1.162-.058 2.093-.145 2.79-.262v-9.857c-.522-.115-1.307-.23-2.354-.348-1.05-.116-2.01-.175-2.88-.175z"/><path d="M13.047 98.6v-.807c0-1.223.13-2.355.393-3.402.262-1.046.697-1.946 1.308-2.704.61-.756 1.452-1.35 2.53-1.787 1.075-.437 2.4-.655 3.97-.655 1.16 0 2.425.133 3.792.393 1.366.262 2.63.654 3.794 1.177l2.53-10.38c-1.105-.466-2.675-.944-4.71-1.44-2.036-.492-4.274-.74-6.716-.74-6.572 0-11.53 1.747-14.873 5.233C1.72 86.976.05 91.688.05 97.618v48.328h12.997V109.59l11.116.026 2.912-11.014H13.047zM57.893 103.9c-1.54-1.63-3.59-2.88-6.148-3.75-2.56-.872-5.64-1.55-9.478-1.55H30.283l-2.833 11.022 13.22.033c3.314 0 5.64.67 6.977 2.006 1.337 1.34 2.006 3.113 2.006 5.323v1.222c-.815-.233-1.876-.422-3.183-.567-1.308-.146-2.808-.22-4.493-.22-2.5 0-4.916.25-7.24.74-2.325.498-4.392 1.294-6.192 2.4-1.804 1.106-3.242 2.59-4.32 4.45-1.076 1.86-1.612 4.13-1.612 6.804 0 2.79.464 5.146 1.394 7.063.93 1.92 2.267 3.477 4.012 4.67 1.743 1.19 3.822 2.05 6.236 2.572 2.413.52 5.105.784 8.07.784 4.71 0 8.723-.276 12.04-.826 3.31-.553 5.9-1.03 7.762-1.44v-27.042c0-2.848-.32-5.436-.96-7.762-.644-2.325-1.734-4.302-3.275-5.93zm-8.242 32.623c-.697.117-1.628.204-2.79.262-1.166.058-2.386.086-3.665.086-2.385 0-4.26-.392-5.626-1.176-1.37-.784-2.052-2.194-2.052-4.23 0-1.047.232-1.92.698-2.617.466-.697 1.104-1.248 1.92-1.656.812-.407 1.756-.685 2.833-.828 1.075-.146 2.224-.22 3.445-.22.872 0 1.833.06 2.88.175 1.046.117 1.83.234 2.354.35v9.857zM125.8 104.86c-1.395-1.86-3.272-3.302-5.627-4.32-2.355-1.016-5.364-1.524-9.028-1.524-2.036 0-4.26.38-6.672 1.135-2.414.757-4.552 1.804-6.412 3.142-1.337-1.163-3.038-2.165-5.102-3.01-2.065-.843-4.754-1.266-8.068-1.266-1.688 0-3.4.073-5.146.218-1.746.146-3.446.35-5.104.61-1.658.262-3.23.554-4.71.873-1.483.32-2.777.626-3.883.916v44.312h12.998V110.53c.814-.117 1.657-.22 2.53-.305.87-.09 1.714-.134 2.528-.134 2.616 0 4.463.874 5.54 2.617 1.074 1.747 1.614 4.712 1.614 8.898v24.338h12.998v-25.037c0-1.686-.058-3.27-.176-4.753s-.38-2.894-.786-4.23c.814-.524 1.846-.96 3.098-1.31 1.25-.35 2.222-.523 2.92-.523 2.618 0 4.463.873 5.54 2.616 1.075 1.746 1.614 4.712 1.614 8.897v24.337h12.997v-25.904c0-3.14-.262-5.99-.785-8.55-.522-2.557-1.48-4.765-2.878-6.627zM145.296 81.176c-1.542-1.365-3.358-2.05-5.452-2.05-2.093 0-3.913.685-5.453 2.05-1.54 1.367-2.31 3.242-2.31 5.627s.77 4.26 2.31 5.626c1.54 1.366 3.36 2.05 5.454 2.05s3.91-.684 5.452-2.05c1.54-1.367 2.31-3.242 2.31-5.627s-.77-4.26-2.31-5.627zM133.39 100.06h12.997v45.885H133.39zM170.897 136.086c-1.57-.115-2.82-.377-3.75-.786-.93-.406-1.644-.93-2.137-1.568-.495-.64-.83-1.426-1.004-2.356-.175-.93-.26-1.977-.26-3.14V78.252l-12.998 2.095v50.504c0 2.443.247 4.64.74 6.588.493 1.948 1.425 3.606 2.792 4.97 1.366 1.367 3.227 2.43 5.582 3.186 2.355.756 5.42 1.163 9.202 1.223l1.833-10.734z" fill="#676767"/><path d="M196.884 100.06c-.583 2.27-1.24 4.726-1.97 7.37-.73 2.647-1.49 5.323-2.276 8.023-.79 2.706-1.59 5.34-2.41 7.897-.818 2.558-1.606 4.884-2.363 6.977-.817-2.094-1.68-4.42-2.587-6.977-.904-2.558-1.795-5.19-2.67-7.897-.876-2.7-1.71-5.377-2.498-8.022-.79-2.645-1.476-5.102-2.06-7.37h-13.783c2.617 9.015 5.41 17.14 8.375 24.38 2.968 7.24 5.936 13.77 8.904 19.583-.874 2.21-1.936 3.938-3.186 5.19-1.252 1.25-3.04 1.877-5.366 1.877-1.165 0-2.27-.088-3.318-.263-1.047-.176-2.24-.495-3.578-.96l-2.27 10.38c1.11.466 2.52.888 4.238 1.266 1.716.378 3.595.566 5.636.566 2.444 0 4.583-.278 6.42-.828 1.834-.554 3.478-1.425 4.935-2.62 1.456-1.188 2.795-2.703 4.02-4.53 1.223-1.834 2.447-4.06 3.67-6.676 3.38-7.27 6.5-14.77 9.357-22.506 2.855-7.732 5.596-16.02 8.22-24.86h-13.44z" fill="#676767"/><g><path d="M190.075 15.773c-7.23 0-12.758 2.118-16.97 5.203C167.656 10.28 156.764.026 136.97.026c-32.103 0-38.85 31.56-38.85 37.543 0 5.985.434 13.928 6.965 25.25 0 0 1.933 3.68 5.767 1.088 4.03-2.722 13.06-6.64 13.06-6.64s2.068-1.305-.215-3.48c-2.288-2.177-5.77-7.944-5.77-15.13 0-7.183 6.64-18.826 19.37-18.826s20.35 9.685 20.35 19.37c0 9.687-6.53 15.13-6.53 15.13s-2.284 1.85.87 3.263c3.158 1.415 9.578 3.918 12.735 5.987.787.516 1.49.816 2.122.95.73.5 1.857.79 3.395-.248 3.056-2.068 9.916-5.042 9.916-5.042s1.57-.993-.166-2.645c-1.733-1.65-4.377-6.032-4.377-11.486 0-5.453 5.04-14.294 14.706-14.294 9.67 0 15.456 7.354 15.456 14.71 0 7.354-4.956 11.486-4.956 11.486s-1.737 1.405.66 2.48c2.396 1.072 7.27 2.974 9.667 4.543 2.397 1.57 3.8.495 4.46-.662.664-1.157 5.456-8.76 5.456-17.933 0-9.172-6.608-29.667-30.988-29.667z" fill="url(#a)" transform="translate(204)"/><g fill="#41C7F3"><path d="M212.82 95.373c7.42-.84 8.328-.513 9.94-.513 2.21 0 4.477.77 5.972 1.846 1.493 1.074 2.24 2.927 2.24 5.558 0 1.195-.27 2.376-.805 3.54-.54 1.167-1.287 2.33-2.242 3.497-.958 1.167-2.06 2.36-3.317 3.584-1.256 1.228-2.6 2.528-4.034 3.902-1.854 1.79-3.72 3.584-5.603 5.378-1.882 1.793-3.57 3.72-5.064 5.782-1.495 2.062-2.705 4.29-3.63 6.68-.93 2.39-1.39 5.018-1.39 7.89v2.148c0 1.018.058 1.854.178 2.512h41.417V135.97h-26.713c.18-.597.64-1.36 1.39-2.284.746-.927 1.6-1.93 2.555-3.002.956-1.078 1.955-2.136 3.004-3.187 1.044-1.045 2.016-1.986 2.912-2.822 1.73-1.614 3.496-3.316 5.29-5.108 1.792-1.794 3.407-3.662 4.84-5.605 1.436-1.94 2.6-3.958 3.497-6.048.897-2.095 1.342-4.276 1.342-6.545 0-2.748-.4-5.216-1.21-7.397-.805-2.18-2.06-4.034-3.763-5.555-1.703-1.525-3.87-2.706-6.5-3.542-2.628-.837-5.77-1.256-9.412-1.256-4.005 0-5.292.368-8.84 1.674l-2.052 10.08z"/><path d="M323.62 111.768c-.626-2.63-1.704-4.9-3.228-6.815-1.52-1.91-3.556-3.39-6.096-4.438-2.54-1.044-5.724-1.567-9.55-1.567-1.312 0-2.672.134-4.076.402-1.405.27-2.556.554-3.452.854V84.926l-13.356.03v37.39h-5.288V85.05h-12.64c-2.69 2.69-5.378 5.708-8.07 9.055-2.687 3.347-5.242 6.768-7.663 10.266-2.42 3.495-4.617 6.9-6.59 10.218-1.97 3.317-3.616 6.293-4.93 8.922v9.77h26.803v13.895h13.088V133.28h5.29v13.897h13.357V111.32c.837-.24 1.778-.465 2.823-.675 1.046-.207 2.166-.312 3.362-.312 2.99 0 5.035.896 6.143 2.688 1.103 1.795 1.66 4.843 1.66 9.146v25.012h13.354V120.55c.002-3.224-.312-6.153-.94-8.782zm-58.135 10.577H251.41c1.795-3.765 4.006-7.44 6.635-11.026 2.63-3.587 5.108-6.902 7.44-9.95v20.975z"/></g></g></g></svg>