<svg xmlns="http://www.w3.org/2000/svg" width="120" height="120" viewBox="0 0 120 120"><g transform="matrix(1.0435 0 0 1.0435 6.77 16.836)" fill="#32ccfe" fill-rule="evenodd"><path d="M60.49 48.882s2.233 6.535 17.852 23.14c0 0 2.067 2.564 4.958-.08 2.894-2.647 13.88-15.12 17.687-23.387 0 0 1.98-2.48-1.075-4.213-3.06-1.736-18.18-13.387-38.925.494-.002 0-2.068 1.32-.496 4.046z"/><circle cx="80.902" cy="23.282" r="11.818"/><path d="M1.182 50.033s2.937 8.602 23.506 30.472c0 0 2.72 3.377 6.53-.104 3.81-3.482 18.28-19.913 23.288-30.797 0 0 2.61-3.266-1.414-5.55-4.027-2.286-23.94-17.63-51.258.653 0 0-2.72 1.733-.652 5.327z"/><circle cx="28.062" cy="16.316" r="15.562"/></g></svg>