<svg xmlns="http://www.w3.org/2000/svg" width="120" height="120" viewBox="0 0 120 120"><g transform="matrix(1.0435 0 0 1.0435 6.769 16.836)" fill="#32ccfe" fill-rule="evenodd"><path d="M60.491 48.882s2.232 6.535 17.851 23.139c0 0 2.067 2.565 4.958-.078 2.894-2.648 13.881-15.122 17.687-23.388 0 0 1.981-2.479-1.075-4.213-3.059-1.736-18.181-13.387-38.925.494-.002 0-2.068 1.319-.496 4.046z"/><circle cx="80.902" cy="23.282" r="11.818"/><path d="M1.182 50.033s2.937 8.602 23.506 30.472c0 0 2.721 3.377 6.53-.104 3.81-3.483 18.281-19.914 23.288-30.798 0 0 2.61-3.266-1.414-5.551-4.027-2.285-23.941-17.629-51.258.654.001-.001-2.72 1.733-.652 5.327z"/><circle cx="28.062" cy="16.316" r="15.562"/></g></svg>