<svg width="426" height="163" viewBox="0 0 426 163" xmlns="http://www.w3.org/2000/svg"><title>logo</title><defs><linearGradient x1="50.001%" y1="95.342%" x2="50.001%" y2="9.932%" id="a"><stop stop-color="#5CC6D0" offset="0%"/><stop stop-color="#41C7F3" offset="68.17%"/><stop stop-color="#5FCCF4" offset="84.09%"/><stop stop-color="#71D0F5" offset="100%"/></linearGradient></defs><g fill="none" fill-rule="evenodd"><g transform="translate(314 23)" fill="#989898"><path d="M60.491 48.882s2.232 6.535 17.851 23.139c0 0 2.067 2.565 4.958-.078 2.894-2.648 13.881-15.122 17.687-23.388 0 0 1.981-2.479-1.075-4.213-3.059-1.736-18.181-13.387-38.925.494-.002 0-2.068 1.319-.496 4.046z"/><circle cx="80.902" cy="23.282" r="11.818"/><path d="M1.182 50.033s2.937 8.602 23.506 30.472c0 0 2.721 3.377 6.53-.104 3.81-3.483 18.281-19.914 23.288-30.798 0 0 2.61-3.266-1.414-5.551-4.027-2.285-23.941-17.629-51.258.654.001-.001-2.72 1.733-.652 5.327z"/><circle cx="28.062" cy="16.316" r="15.562"/></g><path d="M44.417 126.143c-1.222 0-2.371.073-3.447.219-1.077.144-2.021.421-2.834.829-.816.408-1.453.958-1.919 1.656-.466.697-.697 1.57-.697 2.618 0 2.035.683 3.445 2.051 4.229 1.366.786 3.241 1.177 5.626 1.177 1.277 0 2.5-.028 3.665-.086 1.162-.058 2.093-.145 2.791-.262v-9.857c-.523-.115-1.308-.231-2.355-.348a26.393 26.393 0 0 0-2.881-.175z"/><path d="M13.047 98.601v-.808c0-1.223.131-2.355.393-3.402.262-1.047.697-1.947 1.308-2.705.61-.756 1.452-1.351 2.529-1.787 1.076-.436 2.4-.654 3.97-.654 1.161 0 2.426.133 3.793.393 1.366.262 2.63.654 3.794 1.177l2.53-10.379c-1.105-.467-2.675-.945-4.71-1.44-2.036-.493-4.274-.74-6.716-.74-6.572 0-11.529 1.746-14.873 5.232C1.72 86.976.049 91.687.049 97.619v48.327h12.998v-36.357l11.116.027 2.912-11.014H13.047v-.001zM57.893 103.899c-1.541-1.629-3.589-2.878-6.148-3.749-2.56-.872-5.641-1.549-9.478-1.549H30.283l-2.833 11.021 13.22.033c3.314 0 5.639.671 6.977 2.006 1.337 1.34 2.006 3.112 2.006 5.322v1.222c-.815-.233-1.876-.422-3.183-.567-1.308-.146-2.808-.219-4.493-.219-2.501 0-4.916.248-7.24.74-2.325.497-4.392 1.293-6.192 2.399-1.804 1.106-3.242 2.589-4.319 4.449-1.077 1.86-1.613 4.13-1.613 6.805 0 2.79.464 5.146 1.394 7.063a11.766 11.766 0 0 0 4.012 4.669c1.744 1.191 3.823 2.05 6.237 2.573 2.413.521 5.105.784 8.07.784 4.711 0 8.723-.277 12.039-.827 3.312-.553 5.901-1.031 7.763-1.439v-27.043c0-2.848-.32-5.436-.959-7.762-.645-2.325-1.735-4.302-3.276-5.931zm-8.242 32.624c-.698.117-1.629.204-2.791.262a73.856 73.856 0 0 1-3.665.086c-2.385 0-4.26-.393-5.626-1.177-1.368-.784-2.051-2.194-2.051-4.229 0-1.048.232-1.921.698-2.618.466-.697 1.104-1.248 1.919-1.656.813-.408 1.757-.686 2.834-.829a25.664 25.664 0 0 1 3.446-.219c.872 0 1.833.06 2.88.174 1.046.117 1.831.234 2.354.35v9.857h.002v-.001zM125.8 104.859c-1.395-1.859-3.272-3.301-5.627-4.318-2.355-1.017-5.364-1.525-9.028-1.525-2.036 0-4.259.379-6.672 1.135-2.414.756-4.552 1.803-6.412 3.141-1.338-1.163-3.039-2.165-5.103-3.01-2.065-.843-4.754-1.266-8.068-1.266-1.688 0-3.401.073-5.146.218a70.122 70.122 0 0 0-5.104.611 85.652 85.652 0 0 0-4.71.872 93.638 93.638 0 0 0-3.883.916v44.312h12.998v-35.416a57.36 57.36 0 0 1 2.529-.304 24.923 24.923 0 0 1 2.529-.134c2.616 0 4.463.873 5.54 2.616 1.074 1.747 1.614 4.712 1.614 8.898v24.338h12.998v-25.037c0-1.686-.058-3.27-.176-4.753a19.852 19.852 0 0 0-.785-4.231c.814-.523 1.846-.959 3.098-1.309 1.249-.349 2.222-.523 2.921-.523 2.617 0 4.462.873 5.539 2.616 1.075 1.746 1.614 4.712 1.614 8.897v24.337h12.997v-25.904c0-3.14-.262-5.989-.785-8.549-.522-2.558-1.481-4.766-2.878-6.628zM145.296 81.176c-1.542-1.365-3.358-2.049-5.452-2.049-2.093 0-3.913.684-5.453 2.049-1.54 1.367-2.311 3.242-2.311 5.627s.769 4.26 2.311 5.626c1.54 1.367 3.359 2.05 5.453 2.05 2.094 0 3.911-.683 5.452-2.05 1.54-1.366 2.311-3.241 2.311-5.626 0-2.385-.771-4.26-2.311-5.627zM133.39 100.061h12.997v45.884H133.39zM170.897 136.086c-1.57-.115-2.82-.377-3.75-.786-.931-.406-1.644-.929-2.137-1.568-.495-.639-.829-1.426-1.004-2.356-.175-.93-.26-1.977-.26-3.141V78.253l-12.998 2.095v50.504c0 2.443.247 4.641.741 6.588.492 1.948 1.424 3.606 2.791 4.971 1.366 1.366 3.227 2.43 5.582 3.185 2.355.756 5.421 1.163 9.202 1.223l1.833-10.733z" fill="#676767"/><path d="M196.884 100.061a431.216 431.216 0 0 1-1.97 7.37 578.03 578.03 0 0 1-2.276 8.022 320.35 320.35 0 0 1-2.409 7.897 199.454 199.454 0 0 1-2.364 6.977 242.362 242.362 0 0 1-2.587-6.977 309.336 309.336 0 0 1-2.67-7.897 344.386 344.386 0 0 1-2.498-8.022 202.226 202.226 0 0 1-2.06-7.37h-13.783c2.617 9.014 5.41 17.14 8.375 24.38 2.968 7.239 5.936 13.769 8.904 19.582-.874 2.211-1.936 3.938-3.186 5.189-1.252 1.251-3.041 1.878-5.366 1.878-1.165 0-2.271-.088-3.318-.263-1.047-.176-2.239-.495-3.578-.959l-2.269 10.38c1.108.465 2.519.887 4.237 1.265 1.716.378 3.595.566 5.636.566 2.444 0 4.583-.277 6.419-.827a14.156 14.156 0 0 0 4.936-2.619c1.456-1.189 2.795-2.704 4.021-4.532 1.222-1.833 2.446-4.059 3.668-6.675a298.149 298.149 0 0 0 9.358-22.506c2.855-7.732 5.596-16.019 8.221-24.859h-13.441z" fill="#676767"/><g><path d="M190.075 15.773c-7.231 0-12.758 2.118-16.971 5.203C167.657 10.28 156.765.025 136.972.025c-32.103 0-38.849 31.561-38.849 37.544 0 5.986.433 13.929 6.964 25.25 0 0 1.933 3.68 5.767 1.089 4.029-2.722 13.061-6.639 13.061-6.639s2.067-1.306-.216-3.482c-2.287-2.176-5.77-7.943-5.77-15.128 0-7.184 6.64-18.827 19.371-18.827 12.731 0 20.351 9.685 20.351 19.371 0 9.686-6.53 15.129-6.53 15.129s-2.285 1.851.87 3.263c3.157 1.415 9.577 3.918 12.734 5.987.787.516 1.491.816 2.122.949.73.501 1.857.792 3.395-.247 3.056-2.068 9.916-5.042 9.916-5.042s1.57-.993-.166-2.645c-1.733-1.651-4.377-6.032-4.377-11.486 0-5.454 5.039-14.295 14.706-14.295 9.669 0 15.455 7.354 15.455 14.71 0 7.354-4.956 11.486-4.956 11.486s-1.737 1.405.66 2.479c2.396 1.073 7.271 2.975 9.667 4.544 2.397 1.57 3.8.495 4.461-.662.663-1.157 5.455-8.759 5.455-17.933.001-9.172-6.608-29.667-30.988-29.667z" fill="url(#a)" transform="translate(204)"/><g fill="#41C7F3"><path d="M212.82 95.373c7.42-.84 8.328-.513 9.939-.513 2.212 0 4.478.771 5.973 1.846 1.493 1.074 2.24 2.927 2.24 5.558 0 1.195-.27 2.376-.805 3.54-.539 1.167-1.287 2.331-2.242 3.497a44.131 44.131 0 0 1-3.317 3.583 537.676 537.676 0 0 1-4.034 3.902 1080.366 1080.366 0 0 1-5.603 5.378 41.996 41.996 0 0 0-5.065 5.782 29.464 29.464 0 0 0-3.631 6.679c-.928 2.39-1.39 5.019-1.39 7.89v2.149c0 1.018.059 1.854.179 2.512h41.417v-11.205h-26.714c.18-.598.64-1.36 1.391-2.285a77.418 77.418 0 0 1 2.554-3.002 74.189 74.189 0 0 1 3.004-3.187 116.154 116.154 0 0 1 2.912-2.822 213.808 213.808 0 0 0 5.29-5.108 49.59 49.59 0 0 0 4.84-5.605 30.08 30.08 0 0 0 3.497-6.048 16.457 16.457 0 0 0 1.342-6.545c0-2.747-.4-5.215-1.209-7.396-.806-2.181-2.062-4.034-3.764-5.555-1.703-1.525-3.871-2.706-6.5-3.542-2.628-.837-5.769-1.256-9.412-1.256-4.005 0-5.292.368-8.84 1.674l-2.052 10.079z"/><path d="M323.619 111.768c-.625-2.631-1.703-4.899-3.227-6.815-1.521-1.911-3.556-3.389-6.096-4.438-2.541-1.044-5.724-1.567-9.549-1.567-1.313 0-2.673.134-4.077.402-1.405.271-2.556.554-3.452.854V84.926l-13.356.029v37.39h-5.288V85.052h-12.641c-2.689 2.69-5.377 5.708-8.068 9.055a179.851 179.851 0 0 0-7.664 10.266 175.967 175.967 0 0 0-6.591 10.218c-1.971 3.316-3.616 6.292-4.93 8.921v9.769h26.803v13.896h13.088v-13.896h5.29v13.896h13.356v-35.858a36.16 36.16 0 0 1 2.823-.674 17.302 17.302 0 0 1 3.362-.312c2.989 0 5.035.896 6.143 2.688 1.103 1.794 1.659 4.842 1.659 9.145v25.012h13.355V120.55c.003-3.224-.311-6.153-.94-8.782zm-58.134 10.577h-14.074c1.794-3.765 4.005-7.439 6.634-11.026a619.692 619.692 0 0 1 7.44-9.95v20.976z"/></g></g></g></svg>