<?xml version="1.0" encoding="utf-8"?>
<!-- Generator: Adobe Illustrator 19.0.0, SVG Export Plug-In . SVG Version: 6.00 Build 0)  -->
<svg version="1.1" id="Camada_1" xmlns="http://www.w3.org/2000/svg" xmlns:xlink="http://www.w3.org/1999/xlink" x="0px" y="0px"
	 viewBox="88 -49 426 163" style="enable-background:new 88 -49 426 163;" xml:space="preserve">
<style type="text/css">
	.st0{fill:#FFFFFF;}
	.st1{fill:none;}
</style>
<title>logo</title>
<g>
	<g transform="translate(314 23)">
		<path class="st0" d="M148.5-0.1c0,0,2.2,6.5,17.9,23.1c0,0,2.1,2.6,5-0.1c2.9-2.6,13.9-15.1,17.7-23.4c0,0,2-2.5-1.1-4.2
			C184.9-6.4,169.7-18,149-4.2C149-4.2,146.9-2.8,148.5-0.1z"/>
		<circle class="st0" cx="168.9" cy="-25.7" r="11.8"/>
		<path class="st0" d="M89.2,1c0,0,2.9,8.6,23.5,30.5c0,0,2.7,3.4,6.5-0.1c3.8-3.5,18.3-19.9,23.3-30.8c0,0,2.6-3.3-1.4-5.6
			c-4-2.3-23.9-17.6-51.3,0.7C89.8-4.3,87.1-2.6,89.2,1z"/>
		<circle class="st0" cx="116.1" cy="-32.7" r="15.6"/>
	</g>
	<path class="st1" d="M132.4,77.1c-1.2,0-2.4,0.1-3.4,0.2c-1.1,0.1-2,0.4-2.8,0.8c-0.8,0.4-1.5,1-1.9,1.7c-0.5,0.7-0.7,1.6-0.7,2.6
		c0,2,0.7,3.4,2.1,4.2c1.4,0.8,3.2,1.2,5.6,1.2c1.3,0,2.5,0,3.7-0.1c1.2-0.1,2.1-0.1,2.8-0.3v-9.9c-0.5-0.1-1.3-0.2-2.4-0.3
		C134.3,77.2,133.4,77.1,132.4,77.1z"/>
	<path class="st0" d="M101,49.6v-0.8c0-1.2,0.1-2.4,0.4-3.4c0.3-1,0.7-1.9,1.3-2.7c0.6-0.8,1.5-1.4,2.5-1.8c1.1-0.4,2.4-0.7,4-0.7
		c1.2,0,2.4,0.1,3.8,0.4c1.4,0.3,2.6,0.7,3.8,1.2l2.5-10.4c-1.1-0.5-2.7-0.9-4.7-1.4c-2-0.5-4.3-0.7-6.7-0.7
		c-6.6,0-11.5,1.7-14.9,5.2c-3.3,3.5-5,8.2-5,14.1v48.3h13V60.6l11.1,0l2.9-11L101,49.6C101,49.6,101,49.6,101,49.6z M145.9,54.9
		c-1.5-1.6-3.6-2.9-6.1-3.7c-2.6-0.9-5.6-1.5-9.5-1.5h-12l-2.8,11l13.2,0c3.3,0,5.6,0.7,7,2c1.3,1.3,2,3.1,2,5.3v1.2
		c-0.8-0.2-1.9-0.4-3.2-0.6c-1.3-0.1-2.8-0.2-4.5-0.2c-2.5,0-4.9,0.2-7.2,0.7c-2.3,0.5-4.4,1.3-6.2,2.4c-1.8,1.1-3.2,2.6-4.3,4.4
		c-1.1,1.9-1.6,4.1-1.6,6.8c0,2.8,0.5,5.1,1.4,7.1c0.9,1.9,2.3,3.5,4,4.7c1.7,1.2,3.8,2.1,6.2,2.6c2.4,0.5,5.1,0.8,8.1,0.8
		c4.7,0,8.7-0.3,12-0.8c3.3-0.6,5.9-1,7.8-1.4v-27c0-2.8-0.3-5.4-1-7.8C148.5,58.5,147.4,56.5,145.9,54.9z M137.7,87.5
		c-0.7,0.1-1.6,0.2-2.8,0.3c-1.2,0.1-2.4,0.1-3.7,0.1c-2.4,0-4.3-0.4-5.6-1.2c-1.4-0.8-2.1-2.2-2.1-4.2c0-1,0.2-1.9,0.7-2.6
		c0.5-0.7,1.1-1.2,1.9-1.7c0.8-0.4,1.8-0.7,2.8-0.8c1.1-0.2,2.3-0.2,3.4-0.2c0.9,0,1.8,0.1,2.9,0.2c1,0.1,1.8,0.2,2.4,0.3
		L137.7,87.5L137.7,87.5L137.7,87.5L137.7,87.5z M213.8,55.9c-1.4-1.9-3.3-3.3-5.6-4.3c-2.4-1-5.4-1.5-9-1.5c-2,0-4.3,0.4-6.7,1.1
		c-2.4,0.8-4.6,1.8-6.4,3.1c-1.3-1.2-3-2.2-5.1-3c-2.1-0.8-4.8-1.3-8.1-1.3c-1.7,0-3.4,0.1-5.1,0.2c-1.7,0.1-3.4,0.3-5.1,0.6
		c-1.6,0.2-3.1,0.5-4.7,0.9c-1.3,0.3-2.6,0.6-3.9,0.9v44.3h13V61.5c0.8-0.1,1.7-0.2,2.5-0.3c0.8-0.1,1.7-0.1,2.5-0.1
		c2.6,0,4.5,0.9,5.5,2.6c1.1,1.7,1.6,4.7,1.6,8.9v24.3h13v-25c0-1.7-0.1-3.3-0.2-4.8c-0.1-1.4-0.4-2.9-0.8-4.2
		c0.8-0.5,1.8-1,3.1-1.3c1.2-0.3,2.2-0.5,2.9-0.5c2.6,0,4.5,0.9,5.5,2.6c1.1,1.7,1.6,4.7,1.6,8.9v24.3h13V71c0-3.1-0.3-6-0.8-8.5
		C216.2,59.9,215.2,57.7,213.8,55.9L213.8,55.9z M233.3,32.2c-1.5-1.4-3.4-2-5.5-2c-2.1,0-3.9,0.7-5.5,2c-1.5,1.4-2.3,3.2-2.3,5.6
		s0.8,4.3,2.3,5.6c1.5,1.4,3.4,2.1,5.5,2.1c2.1,0,3.9-0.7,5.5-2.1c1.5-1.4,2.3-3.2,2.3-5.6S234.8,33.5,233.3,32.2z M221.4,51.1h13
		v45.9h-13V51.1z M258.9,87.1c-1.6-0.1-2.8-0.4-3.8-0.8c-0.9-0.4-1.6-0.9-2.1-1.6c-0.5-0.6-0.8-1.4-1-2.4c-0.2-0.9-0.3-2-0.3-3.1
		v-50l-13,2.1v50.5c0,2.4,0.2,4.6,0.7,6.6c0.5,1.9,1.4,3.6,2.8,5c1.4,1.4,3.2,2.4,5.6,3.2c2.4,0.8,5.4,1.2,9.2,1.2L258.9,87.1z"/>
	<path class="st0" d="M284.9,51.1c-0.6,2.5-1.3,4.9-2,7.4c-0.7,2.7-1.5,5.4-2.3,8c-0.8,2.6-1.6,5.3-2.4,7.9c-0.7,2.3-1.5,4.7-2.4,7
		c-0.9-2.3-1.8-4.6-2.6-7c-0.9-2.6-1.8-5.3-2.7-7.9c-0.9-2.7-1.7-5.3-2.5-8c-0.7-2.4-1.4-4.9-2.1-7.4h-13.8c2.6,9,5.4,17.1,8.4,24.4
		c3,7.2,5.9,13.8,8.9,19.6c-0.9,2.2-1.9,3.9-3.2,5.2c-1.3,1.3-3,1.9-5.4,1.9c-1.2,0-2.3-0.1-3.3-0.3c-1-0.2-2.2-0.5-3.6-1l-2.3,10.4
		c1.1,0.5,2.5,0.9,4.2,1.3c1.7,0.4,3.6,0.6,5.6,0.6c2.4,0,4.6-0.3,6.4-0.8c1.8-0.5,3.5-1.4,4.9-2.6c1.5-1.2,2.8-2.7,4-4.5
		c1.2-1.8,2.4-4.1,3.7-6.7c3.4-7.4,6.5-14.9,9.4-22.5c2.9-7.7,5.6-16,8.2-24.9L284.9,51.1L284.9,51.1z"/>
	<g>
		<path class="st0" d="M482.1-33.2c-7.2,0-12.8,2.1-17,5.2c-5.4-10.7-16.3-21-36.1-21c-32.1,0-38.8,31.6-38.8,37.5
			c0,6,0.4,13.9,7,25.2c0,0,1.9,3.7,5.8,1.1c4-2.7,13.1-6.6,13.1-6.6s2.1-1.3-0.2-3.5c-2.3-2.2-5.8-7.9-5.8-15.1
			c0-7.2,6.6-18.8,19.4-18.8c12.7,0,20.4,9.7,20.4,19.4s-6.5,15.1-6.5,15.1s-2.3,1.9,0.9,3.3c3.2,1.4,9.6,3.9,12.7,6
			c0.8,0.5,1.5,0.8,2.1,0.9c0.7,0.5,1.9,0.8,3.4-0.2c3.1-2.1,9.9-5,9.9-5s1.6-1-0.2-2.6c-1.7-1.7-4.4-6-4.4-11.5s5-14.3,14.7-14.3
			c9.7,0,15.5,7.4,15.5,14.7c0,7.4-5,11.5-5,11.5s-1.7,1.4,0.7,2.5c2.4,1.1,7.3,3,9.7,4.5c2.4,1.6,3.8,0.5,4.5-0.7
			c0.7-1.2,5.5-8.8,5.5-17.9C513.1-12.7,506.5-33.2,482.1-33.2L482.1-33.2z"/>
		<g>
			<path class="st0" d="M300.8,46.4c7.4-0.8,8.3-0.5,9.9-0.5c2.2,0,4.5,0.8,6,1.8c1.5,1.1,2.2,2.9,2.2,5.6c0,1.2-0.3,2.4-0.8,3.5
				c-0.5,1.2-1.3,2.3-2.2,3.5c-1,1.3-2.1,2.5-3.3,3.6c-1.3,1.3-2.7,2.6-4,3.9c-1.9,1.8-3.7,3.6-5.6,5.4c-1.9,1.8-3.6,3.7-5.1,5.8
				c-1.5,2.1-2.7,4.3-3.6,6.7c-0.9,2.4-1.4,5-1.4,7.9v2.1c0,1,0.1,1.9,0.2,2.5h41.4V87h-26.7c0.2-0.6,0.6-1.4,1.4-2.3
				c0.8-1,1.7-2,2.6-3c1-1.1,2-2.2,3-3.2c1-1,1.9-1.9,2.9-2.8c1.8-1.7,3.6-3.4,5.3-5.1c1.8-1.7,3.4-3.6,4.8-5.6
				c1.4-1.9,2.6-3.9,3.5-6c0.9-2.1,1.3-4.3,1.3-6.5c0-2.7-0.4-5.2-1.2-7.4c-0.8-2.2-2.1-4-3.8-5.6c-1.7-1.5-3.9-2.7-6.5-3.5
				c-2.6-0.8-5.8-1.3-9.4-1.3c-4,0-5.3,0.4-8.8,1.7L300.8,46.4L300.8,46.4z"/>
			<path class="st0" d="M411.6,62.8c-0.6-2.6-1.7-4.9-3.2-6.8c-1.5-1.9-3.6-3.4-6.1-4.4c-2.5-1-5.7-1.6-9.5-1.6
				c-1.3,0-2.7,0.1-4.1,0.4c-1.4,0.3-2.6,0.6-3.5,0.9V35.9l-13.4,0v37.4h-5.3V36.1h-12.6c-2.7,2.7-5.4,5.7-8.1,9.1
				c-2.7,3.3-5.2,6.8-7.7,10.3c-2.3,3.3-4.5,6.7-6.6,10.2c-2,3.3-3.6,6.3-4.9,8.9v9.8h26.8v13.9h13.1V84.3h5.3v13.9h13.4V62.3
				c0.9-0.3,1.9-0.5,2.8-0.7c1.1-0.2,2.2-0.3,3.4-0.3c3,0,5,0.9,6.1,2.7c1.1,1.8,1.7,4.8,1.7,9.1v25h13.4V71.6
				C412.6,68.3,412.2,65.4,411.6,62.8L411.6,62.8z M353.5,73.3h-14.1c1.8-3.8,4-7.4,6.6-11c2.4-3.3,4.9-6.7,7.4-9.9V73.3z"/>
		</g>
	</g>
</g>
</svg>
