<?xml version="1.0" encoding="UTF-8" standalone="no"?>
<svg
   xmlns:dc="http://purl.org/dc/elements/1.1/"
   xmlns:cc="http://creativecommons.org/ns#"
   xmlns:rdf="http://www.w3.org/1999/02/22-rdf-syntax-ns#"
   xmlns:svg="http://www.w3.org/2000/svg"
   xmlns="http://www.w3.org/2000/svg"
   xml:space="preserve"
   viewBox="0 0 48 48"
   height="48"
   width="48"
   y="0px"
   x="0px"
   id="Layer_1"
   version="1.1"><metadata
     id="metadata3347"><rdf:RDF><cc:Work
         rdf:about=""><dc:format>image/svg+xml</dc:format><dc:type
           rdf:resource="http://purl.org/dc/dcmitype/StillImage" /><dc:title></dc:title></cc:Work></rdf:RDF></metadata><defs
     id="defs3345" /><g
     transform="matrix(0.10499914,0,0,0.10499914,0.98363675,-2.7203718)"
     id="g3337"><path
       style="fill:#000000"
       id="path3339"
       d="m 384,160 64,64 -64,64 0,-48 -152,0 c -4.4,0 -8,-3.6 -8,-8 l 0,-16 c 0,-4.4 3.6,-8 8,-8 l 152,0 0,-48 z" /><path
       style="fill:#000000"
       id="path3341"
       d="m 352,176 0,-104 c 0,-4.4 -3.6,-8 -8,-8 L 72,64 c -4.4,0 -8,3.6 -8,8 l 0,302 c 0,8.5 0,10 9.2,14.6 L 192,448 l 0,-64 152,0 c 4.4,0 8,-3.6 8,-8 l 0,-104 -32,0 0,80 -128,0 0,-224 -48,-32 176,0 0,80 32,0 z" /></g></svg>