<?xml version="1.0" encoding="UTF-8" standalone="no"?>
<!-- Created with Inkscape (http://www.inkscape.org/) -->

<svg
   xmlns:dc="http://purl.org/dc/elements/1.1/"
   xmlns:cc="http://creativecommons.org/ns#"
   xmlns:rdf="http://www.w3.org/1999/02/22-rdf-syntax-ns#"
   xmlns:svg="http://www.w3.org/2000/svg"
   xmlns="http://www.w3.org/2000/svg"
   xmlns:sodipodi="http://sodipodi.sourceforge.net/DTD/sodipodi-0.dtd"
   xmlns:inkscape="http://www.inkscape.org/namespaces/inkscape"
   width="120"
   height="120"
   viewBox="0 0 120 120"
   id="svg2"
   version="1.1"
   inkscape:version="0.91 r13725"
   sodipodi:docname="icone-bottom-bar.svg">
  <defs
     id="defs4">
    <linearGradient
       id="linearGradient-1"
       y2="8.9102612"
       x2="116.00944"
       y1="85.237305"
       x1="116.00944"
       gradientTransform="matrix(1.3756983,0,0,0.72690356,120.71535,116.56194)"
       gradientUnits="userSpaceOnUse">
      <stop
         id="stop3345"
         offset="0%"
         stop-color="#5CC6D0" />
      <stop
         id="stop3347"
         offset="68.17%"
         stop-color="#41C7F3" />
      <stop
         id="stop3349"
         offset="84.09%"
         stop-color="#5FCCF4" />
      <stop
         id="stop3351"
         offset="100%"
         stop-color="#71D0F5" />
    </linearGradient>
  </defs>
  <sodipodi:namedview
     id="base"
     pagecolor="#ffffff"
     bordercolor="#666666"
     borderopacity="1.0"
     inkscape:pageopacity="0.0"
     inkscape:pageshadow="2"
     inkscape:zoom="2.849162"
     inkscape:cx="101"
     inkscape:cy="55"
     inkscape:document-units="px"
     inkscape:current-layer="layer1"
     showgrid="false"
     units="px"
     inkscape:window-width="1440"
     inkscape:window-height="897"
     inkscape:window-x="-8"
     inkscape:window-y="-8"
     inkscape:window-maximized="1" />
  <metadata
     id="metadata7">
    <rdf:RDF>
      <cc:Work
         rdf:about="">
        <dc:format>image/svg+xml</dc:format>
        <dc:type
           rdf:resource="http://purl.org/dc/dcmitype/StillImage" />
        <dc:title></dc:title>
      </cc:Work>
    </rdf:RDF>
  </metadata>
  <g
     inkscape:label="Camada 1"
     inkscape:groupmode="layer"
     id="layer1"
     transform="translate(0,-932.36214)">
    <g
       style="fill:#32ccfe;fill-opacity:1;fill-rule:evenodd;stroke:none;stroke-width:1"
       id="Persons"
       transform="matrix(1.0434975,0,0,1.0434975,6.7688072,949.1981)">
      <path
         inkscape:connector-curvature="0"
         d="m 60.491,48.882 c 0,0 2.232,6.535 17.851,23.139 0,0 2.067,2.565 4.958,-0.078 2.894,-2.648 13.881,-15.122 17.687,-23.388 0,0 1.981,-2.479 -1.075,-4.213 -3.059,-1.736 -18.181,-13.387 -38.925,0.494 -0.002,0 -2.068,1.319 -0.496,4.046 l 0,0 z"
         id="Shape"
         style="fill:#32ccfe;fill-opacity:1" />
      <circle
         id="Oval"
         cx="80.902"
         cy="23.282"
         r="11.818"
         style="fill:#32ccfe;fill-opacity:1" />
      <path
         inkscape:connector-curvature="0"
         d="m 1.182,50.033 c 0,0 2.937,8.602 23.506,30.472 0,0 2.721,3.377 6.53,-0.104 3.81,-3.483 18.281,-19.914 23.288,-30.798 0,0 2.61,-3.266 -1.414,-5.551 -4.027,-2.285 -23.941,-17.629 -51.258,0.654 10e-4,-0.001 -2.72,1.733 -0.652,5.327 l 0,0 z"
         id="path3359"
         style="fill:#32ccfe;fill-opacity:1" />
      <circle
         id="circle3361"
         cx="28.062"
         cy="16.316"
         r="15.562"
         style="fill:#32ccfe;fill-opacity:1" />
    </g>
  </g>
</svg>
