<?xml version="1.0" encoding="UTF-8" standalone="no"?>
<svg width="426px" height="163px" viewBox="0 0 426 163" version="1.1" xmlns="http://www.w3.org/2000/svg" xmlns:xlink="http://www.w3.org/1999/xlink" xmlns:sketch="http://www.bohemiancoding.com/sketch/ns">
    <!-- Generator: Sketch 3.3.3 (12072) - http://www.bohemiancoding.com/sketch -->
    <title>logo</title>
    <desc>Created with Sketch.</desc>
    <defs>
        <linearGradient x1="50.0008134%" y1="95.3420382%" x2="50.0008134%" y2="9.93209411%" id="linearGradient-1">
            <stop stop-color="#5CC6D0" offset="0%"></stop>
            <stop stop-color="#41C7F3" offset="68.17%"></stop>
            <stop stop-color="#5FCCF4" offset="84.09%"></stop>
            <stop stop-color="#71D0F5" offset="100%"></stop>
        </linearGradient>
    </defs>
    <g id="Page-1" stroke="none" stroke-width="1" fill="none" fill-rule="evenodd" sketch:type="MSPage">
        <g id="logo" sketch:type="MSLayerGroup">
            <g id="Negativo" transform="translate(0.000000, 23.000000)" sketch:type="MSShapeGroup">
                <g id="Persons" transform="translate(314.000000, 0.000000)" fill="#FFFFFF">
                    <path d="M60.491,48.882 C60.491,48.882 62.723,55.417 78.342,72.021 C78.342,72.021 80.409,74.586 83.3,71.943 C86.194,69.295 97.181,56.821 100.987,48.555 C100.987,48.555 102.968,46.076 99.912,44.342 C96.853,42.606 81.731,30.955 60.987,44.836 C60.985,44.836 58.919,46.155 60.491,48.882 L60.491,48.882 Z" id="Shape"></path>
                    <circle id="Oval" cx="80.902" cy="23.282" r="11.818"></circle>
                    <path d="M1.182,50.033 C1.182,50.033 4.119,58.635 24.688,80.505 C24.688,80.505 27.409,83.882 31.218,80.401 C35.028,76.918 49.499,60.487 54.506,49.603 C54.506,49.603 57.116,46.337 53.092,44.052 C49.065,41.767 29.151,26.423 1.834,44.706 C1.835,44.705 -0.886,46.439 1.182,50.033 L1.182,50.033 Z" id="Shape"></path>
                    <circle id="Oval" cx="28.062" cy="16.316" r="15.562"></circle>
                </g>
                <g id="Family" transform="translate(0.000000, 55.000000)">
                    <path d="M44.417,48.143 C43.195,48.143 42.046,48.216 40.97,48.362 C39.893,48.506 38.949,48.783 38.136,49.191 C37.32,49.599 36.683,50.149 36.217,50.847 C35.751,51.544 35.52,52.417 35.52,53.465 C35.52,55.5 36.203,56.91 37.571,57.694 C38.937,58.48 40.812,58.871 43.197,58.871 C44.474,58.871 45.697,58.843 46.862,58.785 C48.024,58.727 48.955,58.64 49.653,58.523 L49.653,48.666 C49.13,48.551 48.345,48.435 47.298,48.318 C46.249,48.202 45.289,48.143 44.417,48.143 L44.417,48.143 Z" id="Shape"></path>
                    <path d="M13.047,20.601 L13.047,19.793 C13.047,18.57 13.178,17.438 13.44,16.391 C13.702,15.344 14.137,14.444 14.748,13.686 C15.358,12.93 16.2,12.335 17.277,11.899 C18.353,11.463 19.677,11.245 21.247,11.245 C22.408,11.245 23.673,11.378 25.04,11.638 C26.406,11.9 27.67,12.292 28.834,12.815 L31.364,2.436 C30.259,1.969 28.689,1.491 26.654,0.996 C24.618,0.503 22.38,0.256 19.938,0.256 C13.366,0.256 8.409,2.002 5.065,5.488 C1.72,8.976 0.049,13.687 0.049,19.619 L0.049,67.946 L13.047,67.946 L13.047,32.88 L13.047,31.589 L24.163,31.616 L27.075,20.602 L13.047,20.602 L13.047,20.601 L13.047,20.601 Z" id="Shape" fill="#FFFFFF"></path>
                    <path d="M57.893,25.899 C56.352,24.27 54.304,23.021 51.745,22.15 C49.185,21.278 46.104,20.601 42.267,20.601 L30.283,20.601 L27.45,31.622 L40.67,31.655 C43.984,31.655 46.309,32.326 47.647,33.661 C48.984,35.001 49.653,36.773 49.653,38.983 L49.653,40.205 C48.838,39.972 47.777,39.783 46.47,39.638 C45.162,39.492 43.662,39.419 41.977,39.419 C39.476,39.419 37.061,39.667 34.737,40.159 C32.412,40.656 30.345,41.452 28.545,42.558 C26.741,43.664 25.303,45.147 24.226,47.007 C23.149,48.867 22.613,51.137 22.613,53.812 C22.613,56.602 23.077,58.958 24.007,60.875 C24.937,62.795 26.274,64.352 28.019,65.544 C29.763,66.735 31.842,67.594 34.256,68.117 C36.669,68.638 39.361,68.901 42.326,68.901 C47.037,68.901 51.049,68.624 54.365,68.074 C57.677,67.521 60.266,67.043 62.128,66.635 L62.128,39.592 C62.128,36.744 61.808,34.156 61.169,31.83 C60.524,29.505 59.434,27.528 57.893,25.899 L57.893,25.899 Z M49.651,58.523 C48.953,58.64 48.022,58.727 46.86,58.785 C45.694,58.843 44.474,58.871 43.195,58.871 C40.81,58.871 38.935,58.478 37.569,57.694 C36.201,56.91 35.518,55.5 35.518,53.465 C35.518,52.417 35.75,51.544 36.216,50.847 C36.682,50.15 37.32,49.599 38.135,49.191 C38.948,48.783 39.892,48.505 40.969,48.362 C42.045,48.216 43.194,48.143 44.415,48.143 C45.287,48.143 46.248,48.203 47.295,48.317 C48.341,48.434 49.126,48.551 49.649,48.667 L49.649,58.524 L49.651,58.524 L49.651,58.523 Z" id="Shape" fill="#FFFFFF"></path>
                    <path d="M125.8,26.859 C124.405,25 122.528,23.558 120.173,22.541 C117.818,21.524 114.809,21.016 111.145,21.016 C109.109,21.016 106.886,21.395 104.473,22.151 C102.059,22.907 99.921,23.954 98.061,25.292 C96.723,24.129 95.022,23.127 92.958,22.282 C90.893,21.439 88.204,21.016 84.89,21.016 C83.202,21.016 81.489,21.089 79.744,21.234 C77.998,21.38 76.298,21.583 74.64,21.845 C72.982,22.106 71.411,22.398 69.93,22.717 C68.447,23.038 67.153,23.343 66.047,23.633 L66.047,67.945 L79.045,67.945 L79.045,32.529 C79.859,32.413 80.702,32.31 81.574,32.225 C82.446,32.136 83.289,32.091 84.103,32.091 C86.719,32.091 88.566,32.964 89.643,34.707 C90.717,36.454 91.257,39.419 91.257,43.605 L91.257,67.943 L104.255,67.943 L104.255,42.906 C104.255,41.22 104.197,39.636 104.079,38.153 C103.962,36.67 103.701,35.259 103.294,33.922 C104.108,33.399 105.14,32.963 106.392,32.613 C107.641,32.264 108.614,32.09 109.313,32.09 C111.93,32.09 113.775,32.963 114.852,34.706 C115.927,36.452 116.466,39.418 116.466,43.603 L116.466,67.94 L129.463,67.94 L129.463,42.036 C129.463,38.896 129.201,36.047 128.678,33.487 C128.156,30.929 127.197,28.721 125.8,26.859 L125.8,26.859 Z" id="Shape" fill="#FFFFFF"></path>
                    <path d="M145.296,3.176 C143.754,1.811 141.938,1.127 139.844,1.127 C137.751,1.127 135.931,1.811 134.391,3.176 C132.851,4.543 132.08,6.418 132.08,8.803 C132.08,11.188 132.849,13.063 134.391,14.429 C135.931,15.796 137.75,16.479 139.844,16.479 C141.938,16.479 143.755,15.796 145.296,14.429 C146.836,13.063 147.607,11.188 147.607,8.803 C147.607,6.418 146.836,4.543 145.296,3.176 L145.296,3.176 Z" id="Shape" fill="#FFFFFF"></path>
                    <rect id="Rectangle-path" fill="#FFFFFF" x="133.39" y="22.061" width="12.997" height="45.884"></rect>
                    <path d="M170.897,58.086 C169.327,57.971 168.077,57.709 167.147,57.3 C166.216,56.894 165.503,56.371 165.01,55.732 C164.515,55.093 164.181,54.306 164.006,53.376 C163.831,52.446 163.746,51.399 163.746,50.235 L163.746,0.253 L150.748,2.348 L150.748,52.852 C150.748,55.295 150.995,57.493 151.489,59.44 C151.981,61.388 152.913,63.046 154.28,64.411 C155.646,65.777 157.507,66.841 159.862,67.596 C162.217,68.352 165.283,68.759 169.064,68.819 L170.897,58.086 L170.897,58.086 Z" id="Shape" fill="#FFFFFF"></path>
                    <path d="M196.884,22.061 C196.301,24.33 195.644,26.786 194.914,29.431 C194.184,32.077 193.425,34.753 192.638,37.453 C191.849,40.159 191.047,42.792 190.229,45.35 C189.41,47.908 188.622,50.234 187.865,52.327 C187.048,50.233 186.186,47.908 185.278,45.35 C184.374,42.792 183.483,40.159 182.608,37.453 C181.732,34.752 180.897,32.076 180.11,29.431 C179.32,26.785 178.634,24.328 178.05,22.061 L164.267,22.061 C166.884,31.075 169.677,39.201 172.642,46.441 C175.61,53.68 178.578,60.21 181.546,66.023 C180.672,68.234 179.61,69.961 178.36,71.212 C177.108,72.463 175.319,73.09 172.994,73.09 C171.829,73.09 170.723,73.002 169.676,72.827 C168.629,72.651 167.437,72.332 166.098,71.868 L163.829,82.248 C164.937,82.713 166.348,83.135 168.066,83.513 C169.782,83.891 171.661,84.079 173.702,84.079 C176.146,84.079 178.285,83.802 180.121,83.252 C181.956,82.698 183.6,81.827 185.057,80.633 C186.513,79.444 187.852,77.929 189.078,76.101 C190.3,74.268 191.524,72.042 192.746,69.426 C196.128,62.157 199.247,54.657 202.104,46.92 C204.959,39.188 207.7,30.901 210.325,22.061 L196.884,22.061 L196.884,22.061 Z" id="Shape" fill="#FFFFFF"></path>
                </g>
            </g>
            <g id="Comum" transform="translate(204.000000, 0.000000)" sketch:type="MSShapeGroup">
                <path d="M190.075,15.773 C182.844,15.773 177.317,17.891 173.104,20.976 C167.657,10.28 156.765,0.025 136.972,0.025 C104.869,0.025 98.123,31.586 98.123,37.569 C98.123,43.555 98.556,51.498 105.087,62.819 C105.087,62.819 107.02,66.499 110.854,63.908 C114.883,61.186 123.915,57.269 123.915,57.269 C123.915,57.269 125.982,55.963 123.699,53.787 C121.412,51.611 117.929,45.844 117.929,38.659 C117.929,31.475 124.569,19.832 137.3,19.832 C150.031,19.832 157.651,29.517 157.651,39.203 C157.651,48.889 151.121,54.332 151.121,54.332 C151.121,54.332 148.836,56.183 151.991,57.595 C155.148,59.01 161.568,61.513 164.725,63.582 C165.512,64.098 166.216,64.398 166.847,64.531 C167.577,65.032 168.704,65.323 170.242,64.284 C173.298,62.216 180.158,59.242 180.158,59.242 C180.158,59.242 181.728,58.249 179.992,56.597 C178.259,54.946 175.615,50.565 175.615,45.111 C175.615,39.657 180.654,30.816 190.321,30.816 C199.99,30.816 205.776,38.17 205.776,45.526 C205.776,52.88 200.82,57.012 200.82,57.012 C200.82,57.012 199.083,58.417 201.48,59.491 C203.876,60.564 208.751,62.466 211.147,64.035 C213.544,65.605 214.947,64.53 215.608,63.373 C216.271,62.216 221.063,54.614 221.063,45.44 C221.064,36.268 214.455,15.773 190.075,15.773 L190.075,15.773 Z" id="Shape" fill="url(#linearGradient-1)"></path>
                <g id="24h" transform="translate(0.000000, 83.000000)" fill="#41C7F3">
                    <path d="M8.82,12.373 C16.24,11.533 17.148,11.86 18.759,11.86 C20.971,11.86 23.237,12.631 24.732,13.706 C26.225,14.78 26.972,16.633 26.972,19.264 C26.972,20.459 26.702,21.64 26.167,22.804 C25.628,23.971 24.88,25.135 23.925,26.301 C22.967,27.467 21.864,28.661 20.608,29.884 C19.352,31.112 18.009,32.412 16.574,33.786 C14.72,35.577 12.855,37.37 10.971,39.164 C9.088,40.957 7.399,42.885 5.906,44.946 C4.411,47.008 3.201,49.235 2.275,51.625 C1.347,54.015 0.885,56.644 0.885,59.515 L0.885,61.664 C0.885,62.682 0.944,63.518 1.064,64.176 L42.481,64.176 L42.481,52.971 L15.767,52.971 C15.947,52.373 16.407,51.611 17.158,50.686 C17.903,49.759 18.756,48.756 19.712,47.684 C20.668,46.606 21.667,45.548 22.716,44.497 C23.76,43.452 24.732,42.511 25.628,41.675 C27.359,40.061 29.124,38.359 30.918,36.567 C32.71,34.773 34.325,32.905 35.758,30.962 C37.194,29.022 38.359,27.004 39.255,24.914 C40.152,22.819 40.597,20.638 40.597,18.369 C40.597,15.622 40.197,13.154 39.388,10.973 C38.582,8.792 37.326,6.939 35.624,5.418 C33.921,3.893 31.753,2.712 29.124,1.876 C26.496,1.039 23.355,0.62 19.712,0.62 C15.707,0.62 14.42,0.988 10.872,2.294 L8.82,12.373 L8.82,12.373 Z" id="Shape"></path>
                    <path d="M119.619,28.768 C118.994,26.137 117.916,23.869 116.392,21.953 C114.871,20.042 112.836,18.564 110.296,17.515 C107.755,16.471 104.572,15.948 100.747,15.948 C99.434,15.948 98.074,16.082 96.67,16.35 C95.265,16.621 94.114,16.904 93.218,17.204 L93.218,1.926 L79.862,1.955 L79.862,39.345 L74.574,39.345 L74.574,2.052 L61.933,2.052 C59.244,4.742 56.556,7.76 53.865,11.107 C51.177,14.454 48.622,17.875 46.201,21.373 C43.78,24.868 41.583,28.274 39.61,31.591 C37.639,34.907 35.994,37.883 34.68,40.512 L34.68,50.281 L61.483,50.281 L61.483,64.177 L74.571,64.177 L74.571,50.281 L79.861,50.281 L79.861,64.177 L93.217,64.177 L93.217,28.319 C94.054,28.079 94.995,27.855 96.04,27.645 C97.086,27.438 98.206,27.333 99.402,27.333 C102.391,27.333 104.437,28.229 105.545,30.021 C106.648,31.815 107.204,34.863 107.204,39.166 L107.204,64.178 L120.559,64.178 L120.559,37.55 C120.562,34.326 120.248,31.397 119.619,28.768 L119.619,28.768 Z M61.485,39.345 L47.411,39.345 C49.205,35.58 51.416,31.906 54.045,28.319 C56.675,24.733 59.153,21.418 61.485,18.369 L61.485,39.345 L61.485,39.345 Z" id="Shape"></path>
                </g>
            </g>
        </g>
    </g>
</svg>